<?xml version="1.0" encoding="utf-8"?>
<!-- Generator: Adobe Illustrator 22.1.0, SVG Export Plug-In . SVG Version: 6.00 Build 0)  -->
<svg version="1.1" xmlns="http://www.w3.org/2000/svg" xmlns:xlink="http://www.w3.org/1999/xlink" x="0px" y="0px"
	 viewBox="0 0 595.3 841.9" style="enable-background:new 0 0 595.3 841.9;" xml:space="preserve">
<style type="text/css">
	.st0{fill-rule:evenodd;clip-rule:evenodd;fill:#E8DCC7;stroke:#000000;stroke-width:0.5;stroke-miterlimit:10;}
	.st1{fill-rule:evenodd;clip-rule:evenodd;fill:none;}
	.st2{fill:#ECD7CA;}
	.st3{font-family:'DancingScript';}
	.st4{font-size:30.5567px;}
	.st5{fill:none;stroke:#A68565;stroke-miterlimit:10;}
	.st6{fill:none;stroke:#A68565;stroke-width:3;stroke-miterlimit:10;}
</style>
<g id="Calque_1">
	<rect class="st0" width="595.3" height="842.8"/>
	<rect x="92.2" y="751.1" class="st1" width="405.8" height="39.7"/>
	<text transform="matrix(1.3175 0 0 1 207.6611 773.0566)" class="st2 st3 st4"> Seral Yilar</text>
	<g>
		<path class="st5" d="M297.8,771.3c-1,0-2.5,0.6-3.3,1.2c-6.7,5.1-1.3,12.9,3.9,17.5c0.6,0.5,1.2,1,1.9,1.5
			c0.2,0.1,0.3,0.3,0.5,0.4c0.2,0.1,0.4,0.3,0.5,0.4c13.5,9.4,34.4,6.7,48.9,0.2c7.3-3.3,11.3-9.1,14-15c2.6-5.7,4.3-13,12.9-15.4
			c8.6-2.4,17.9,5.9,11.2,11.5c-3.2,2.6-9.8,3.3-12.8,0.2c-1.5-1.6-1-3.6,0.6-5c1.6-1.3,5.8-2.6,6.9-0.1c0.5,1-0.6,2.3-2,2.2"/>
		<path class="st5" d="M367.9,785.4c0.5-0.7-0.4-1.7-1.5-1.8c-1.7-0.2-3.1,1.5-2.5,2.7c0.6,1.2,2.8,1.8,4.4,1.3
			c3.4-0.9,3.7-4.1,2.9-6.4c-1-2.9-3.6-5-7.4-6c-5.3-1.4-11.3-1.2-16.5,0.5c-3.9,1.2-7.8,4.3-7.4,7.8c0.1,0.8,0.3,1.6,1.1,2.2
			c0.9,0.6,2.4,0.6,3-0.3c0.7-1-0.4-2.1-1.3-2.8c-0.9-0.6-2-1-3.2-1.2c-6.9-1.3-10.2,2.8-12.7,6.9c-6.1,9.9-14.5,14.2-29.2,14.8"/>
		<path class="st5" d="M297.8,761.6c-1.2,0-2.7,0.3-3.7,0.6c-15.6,5.3-13.4,23.7-0.9,30.8c4.9,2.8,11.7,3.1,17.1,0.9
			c5.6-2.2,10.3-6.7,13.5-10.7c1.1-1.4,2.1-2.9,2.4-4.4c0.3-1.7-0.4-4.5-3.3-4.6c-0.5,0-1,0.1-1.4,0.3c-1.1,0.5-1.9,1.4-1.9,2.3
			c0,1,0.6,1.9,1.7,2.4c1.2,0.6,2.8,0.6,4.2,0.2c3.8-1.1,6.3-3.9,9.6-5.6c3.5-1.8,7.5-3,11.7-3.4c4.3-0.4,8.7-0.3,12.9-1.1
			c3.7-0.8,8.1-3.6,5.9-6.8c-1.3-1.8-4.4-2.9-7-3c-5.8-0.2-6.9,6.8-0.6,6.7c1.8,0,3.1-0.7,3.4-2.1c0.3-1.6-2.7-2.3-2.6-0.9"/>
		<path class="st5" d="M297.8,771.3c1,0,2.5,0.6,3.3,1.2c6.7,5.1,1.3,12.9-3.9,17.5c-0.6,0.5-1.2,1-1.9,1.5
			c-0.2,0.1-0.3,0.3-0.5,0.4c-0.2,0.1-0.4,0.3-0.5,0.4c-13.5,9.4-34.4,6.7-48.9,0.2c-7.3-3.3-11.3-9.1-14-15
			c-2.6-5.7-4.3-13-12.9-15.4c-8.6-2.4-17.9,5.9-11.2,11.5c3.2,2.6,9.8,3.3,12.8,0.2c1.5-1.6,1-3.6-0.6-5c-1.6-1.3-5.8-2.6-6.9-0.1
			c-0.5,1,0.6,2.3,2,2.2"/>
		<path class="st5" d="M227.7,785.4c-0.5-0.7,0.4-1.7,1.5-1.8c1.7-0.2,3.1,1.5,2.5,2.7c-0.6,1.2-2.8,1.8-4.4,1.3
			c-3.4-0.9-3.7-4.1-2.9-6.4c1-2.9,3.6-5,7.4-6c5.3-1.4,11.3-1.2,16.5,0.5c3.9,1.2,7.8,4.3,7.4,7.8c-0.1,0.8-0.3,1.6-1.1,2.2
			c-0.9,0.6-2.4,0.6-3-0.3c-0.7-1,0.4-2.1,1.3-2.8c0.9-0.6,2-1,3.2-1.2c6.9-1.3,10.2,2.8,12.7,6.9c6.1,9.9,14.5,14.2,29.2,14.8"/>
		<path class="st5" d="M297.8,761.6c1.2,0,2.7,0.3,3.7,0.6c15.6,5.3,13.4,23.7,0.9,30.8c-4.9,2.8-11.7,3.1-17.1,0.9
			c-5.6-2.2-10.3-6.7-13.5-10.7c-1.1-1.4-2.1-2.9-2.4-4.4c-0.3-1.7,0.4-4.5,3.3-4.6c0.5,0,1,0.1,1.4,0.3c1.1,0.5,1.9,1.4,1.9,2.3
			c0,1-0.6,1.9-1.7,2.4c-1.2,0.6-2.8,0.6-4.2,0.2c-3.8-1.1-6.3-3.9-9.6-5.6c-3.5-1.8-7.5-3-11.7-3.4c-4.3-0.4-8.7-0.3-12.9-1.1
			c-3.7-0.8-8.1-3.6-5.9-6.8c1.3-1.8,4.4-2.9,7-3c5.8-0.2,6.9,6.8,0.6,6.7c-1.8,0-3.1-0.7-3.4-2.1c-0.3-1.6,2.7-2.3,2.6-0.9"/>
	</g>
	<g>
		<path class="st5" d="M297.8,72.1c-1,0-2.5-0.6-3.3-1.2c-6.7-5.1-1.3-12.9,3.9-17.5c0.6-0.5,1.2-1,1.9-1.5c0.2-0.1,0.3-0.3,0.5-0.4
			c0.2-0.1,0.4-0.3,0.5-0.4c13.5-9.4,34.4-6.7,48.9-0.2c7.3,3.3,11.3,9.1,14,15c2.6,5.7,4.3,13,12.9,15.4
			c8.6,2.4,17.9-5.9,11.2-11.5c-3.2-2.6-9.8-3.3-12.8-0.2c-1.5,1.6-1,3.6,0.6,5c1.6,1.3,5.8,2.6,6.9,0.1c0.5-1-0.6-2.3-2-2.2"/>
		<path class="st5" d="M367.9,58.1c0.5,0.7-0.4,1.7-1.5,1.8c-1.7,0.2-3.1-1.5-2.5-2.7c0.6-1.2,2.8-1.8,4.4-1.3
			c3.4,0.9,3.7,4.1,2.9,6.4c-1,2.9-3.6,5-7.4,6c-5.3,1.4-11.3,1.2-16.5-0.5c-3.9-1.2-7.8-4.3-7.4-7.8c0.1-0.8,0.3-1.6,1.1-2.2
			c0.9-0.6,2.4-0.6,3,0.3c0.7,1-0.4,2.1-1.3,2.8c-0.9,0.6-2,1-3.2,1.2c-6.9,1.3-10.2-2.8-12.7-6.9c-6.1-9.9-14.5-14.2-29.2-14.8"/>
		<path class="st5" d="M297.8,81.8c-1.2,0-2.7-0.3-3.7-0.6c-15.6-5.3-13.4-23.7-0.9-30.8c4.9-2.8,11.7-3.1,17.1-0.9
			c5.6,2.2,10.3,6.7,13.5,10.7c1.1,1.4,2.1,2.9,2.4,4.4c0.3,1.7-0.4,4.5-3.3,4.6c-0.5,0-1-0.1-1.4-0.3c-1.1-0.5-1.9-1.4-1.9-2.3
			c0-1,0.6-1.9,1.7-2.4c1.2-0.6,2.8-0.6,4.2-0.2c3.8,1.1,6.3,3.9,9.6,5.6c3.5,1.8,7.5,3,11.7,3.4c4.3,0.4,8.7,0.3,12.9,1.1
			c3.7,0.8,8.1,3.6,5.9,6.8c-1.3,1.8-4.4,2.9-7,3c-5.8,0.2-6.9-6.8-0.6-6.7c1.8,0,3.1,0.7,3.4,2.1c0.3,1.6-2.7,2.3-2.6,0.9"/>
		<path class="st5" d="M297.8,72.1c1,0,2.5-0.6,3.3-1.2c6.7-5.1,1.3-12.9-3.9-17.5c-0.6-0.5-1.2-1-1.9-1.5c-0.2-0.1-0.3-0.3-0.5-0.4
			c-0.2-0.1-0.4-0.3-0.5-0.4c-13.5-9.4-34.4-6.7-48.9-0.2c-7.3,3.3-11.3,9.1-14,15c-2.6,5.7-4.3,13-12.9,15.4
			c-8.6,2.4-17.9-5.9-11.2-11.5c3.2-2.6,9.8-3.3,12.8-0.2c1.5,1.6,1,3.6-0.6,5c-1.6,1.3-5.8,2.6-6.9,0.1c-0.5-1,0.6-2.3,2-2.2"/>
		<path class="st5" d="M227.7,58.1c-0.5,0.7,0.4,1.7,1.5,1.8c1.7,0.2,3.1-1.5,2.5-2.7c-0.6-1.2-2.8-1.8-4.4-1.3
			c-3.4,0.9-3.7,4.1-2.9,6.4c1,2.9,3.6,5,7.4,6c5.3,1.4,11.3,1.2,16.5-0.5c3.9-1.2,7.8-4.3,7.4-7.8c-0.1-0.8-0.3-1.6-1.1-2.2
			c-0.9-0.6-2.4-0.6-3,0.3c-0.7,1,0.4,2.1,1.3,2.8c0.9,0.6,2,1,3.2,1.2c6.9,1.3,10.2-2.8,12.7-6.9c6.1-9.9,14.5-14.2,29.2-14.8"/>
		<path class="st5" d="M297.8,81.8c1.2,0,2.7-0.3,3.7-0.6c15.6-5.3,13.4-23.7,0.9-30.8c-4.9-2.8-11.7-3.1-17.1-0.9
			c-5.6,2.2-10.3,6.7-13.5,10.7c-1.1,1.4-2.1,2.9-2.4,4.4c-0.3,1.7,0.4,4.5,3.3,4.6c0.5,0,1-0.1,1.4-0.3c1.1-0.5,1.9-1.4,1.9-2.3
			c0-1-0.6-1.9-1.7-2.4c-1.2-0.6-2.8-0.6-4.2-0.2c-3.8,1.1-6.3,3.9-9.6,5.6c-3.5,1.8-7.5,3-11.7,3.4c-4.3,0.4-8.7,0.3-12.9,1.1
			c-3.7,0.8-8.1,3.6-5.9,6.8c1.3,1.8,4.4,2.9,7,3c5.8,0.2,6.9-6.8,0.6-6.7c-1.8,0-3.1,0.7-3.4,2.1c-0.3,1.6,2.7,2.3,2.6,0.9"/>
	</g>
	<path class="st5" d="M565.1,775.7V67.4c-32.3,0-58.4-19.9-58.4-44.3H88.4c0,24.5-26.2,44.3-58.4,44.3v708.2
		c32.3,0,58.4,19.9,58.4,44.3h418.3C506.7,795.5,532.8,775.7,565.1,775.7z"/>
	<path class="st6" d="M549,765.5V77.6c-25.3-0.6-55.9-23.7-56.7-43H102.7c0.3,17.8-33.3,44.1-56.7,43v687.9
		c25.3-0.5,56.9,25.3,56.7,43h389.6C493.5,790.8,524.3,765.3,549,765.5z"/>
	<path class="st5" d="M29.9,23.1h45.9c0,9.2-4.8,18.1-13.4,24.6S42.1,57.9,29.9,57.9L29.9,23.1z"/>
	<path class="st5" d="M565.1,23.1h-45.9c0,9.2,4.8,18.1,13.4,24.6c8.6,6.5,20.3,10.2,32.5,10.2L565.1,23.1z"/>
	<path class="st5" d="M29.9,820h45.9c0-9.2-4.8-18.1-13.4-24.6c-8.6-6.5-20.3-10.2-32.4-10.2L29.9,820z"/>
	<path class="st5" d="M565.1,820h-45.9c0-9.2,4.8-18.1,13.4-24.6c8.6-6.5,20.3-10.2,32.5-10.2L565.1,820z"/>
	<polygon class="st1" points="145.8,398.2 217.7,398.2 217.7,398.2 145.8,398.2 	"/>
</g>
<g id="titre">
</g>
<g id="Calque_9">
</g>
<g id="Calque_4">
</g>
</svg>
